<svg width="28" height="28" viewBox="0 0 28 28" fill="none" xmlns="http://www.w3.org/2000/svg">
<g clip-path="url(#clip0_679_4048)">
<path d="M3.58474 17.7568C3.40373 17.4878 2.80078 16.4649 2.80078 14.8162C2.80078 14.1973 2.88634 13.4911 3.10866 12.7052C3.11099 12.6999 3.11157 12.6959 3.11215 12.69L3.20935 12.3093L3.23321 12.3332L3.27977 12.1934C3.35776 11.9588 3.43924 11.712 3.45844 11.6543C3.47125 11.6037 3.54225 11.3213 3.5987 11.1245C3.61558 11.0657 3.63013 11.0174 3.64526 10.9755L3.64876 10.9475C3.6668 10.8014 3.69008 10.6605 3.71743 10.5243C3.72732 10.4515 3.73955 10.3817 3.74944 10.3217L3.7541 10.2955L3.76457 10.2716C3.77098 10.2553 3.77679 10.2431 3.78145 10.2326C4.06256 9.08339 4.58926 8.40339 4.8855 8.09425L4.88958 8.09076L4.89306 8.08727C4.95069 8.0337 5.11365 7.88117 5.30105 7.76473C5.38718 7.65179 5.66712 7.28909 5.92378 7.00091C6.01109 6.90426 6.09489 6.81635 6.17346 6.74474C6.21595 6.64752 6.3178 6.43968 6.50985 6.19981C6.76361 5.88252 7.17857 5.5076 7.81178 5.2753C8.29775 4.94578 8.81282 4.65294 9.34768 4.40086C9.44953 4.29548 9.83772 3.91182 10.4401 3.52583C11.1408 3.07813 12.1366 2.62461 13.314 2.62402C13.3588 2.62402 13.4042 2.62461 13.449 2.62577L13.878 2.638L13.3472 3.35234C13.6294 3.33138 13.9152 3.31974 14.2039 3.31974C15.7264 3.31974 17.1796 3.61782 18.5025 4.15518L18.5089 4.15751L18.5147 4.15983C18.5665 4.18487 18.6579 4.23086 18.7522 4.28849C18.8325 4.34031 18.914 4.39212 18.9856 4.4713C19.0764 4.4812 19.2702 4.51322 19.4872 4.61044L19.4936 4.61336L19.4995 4.61627C20.9318 5.36728 22.179 6.41231 23.1527 7.67042L23.1614 7.6809L23.1684 7.69371C23.1835 7.71932 23.2219 7.79675 23.2545 7.95976C23.2708 7.96967 23.2941 7.9848 23.3203 8.0011C23.3727 8.0372 23.4314 8.07679 23.4891 8.135L23.5019 8.1484L23.5129 8.16295C24.7107 9.9031 25.4108 11.9984 25.4108 14.252C25.4108 16.3875 24.7817 18.3827 23.6945 20.0663L23.6904 20.0722L23.6864 20.0774C23.6689 20.1001 23.6613 20.1077 23.645 20.1222C23.6311 20.1368 23.6136 20.1513 23.5909 20.1688C23.5583 20.1938 23.5153 20.223 23.4605 20.2561C23.4559 20.2771 23.4501 20.305 23.4419 20.3359C23.4239 20.404 23.4035 20.4832 23.3494 20.5711L23.3465 20.5758L23.3424 20.5816C21.3118 23.3685 17.9735 25.1838 14.2039 25.1838C9.27318 25.1838 5.08396 22.0784 3.58474 17.7568Z" fill="#FEFEFE"/>
<path d="M23.328 8.29128C23.2634 8.22491 23.1121 8.13525 23.1121 8.13525C23.0562 8.11429 23.0451 8.06364 23.0451 8.06364C23.0149 7.87501 22.9753 7.80806 22.9753 7.80806C22.0208 6.57557 20.7986 5.55151 19.3948 4.81446C19.144 4.70209 18.9182 4.68987 18.9182 4.68987C18.8676 4.69103 18.8437 4.65144 18.8437 4.65144C18.7611 4.53442 18.5114 4.4075 18.4177 4.36326C17.1204 3.83638 15.6962 3.54471 14.2028 3.54471C13.7495 3.54471 13.3042 3.57207 12.866 3.62388L13.4416 2.84957C11.138 2.78088 9.48458 4.58158 9.48458 4.58158L9.48575 4.58391C8.93343 4.84065 8.40439 5.14106 7.90621 5.48222L7.90737 5.47931C6.70671 5.91013 6.35984 6.87889 6.35984 6.87889C6.05545 7.13389 5.4525 7.9344 5.4525 7.9344C5.27965 8.03395 5.10039 8.19871 5.04627 8.25052C4.76982 8.53812 4.2629 9.18726 3.99285 10.3051C3.98587 10.3231 3.97714 10.3412 3.96899 10.3604C3.95852 10.4221 3.94629 10.4925 3.93698 10.5618C3.91079 10.6951 3.88751 10.8325 3.86947 10.9757L3.88052 10.9606C3.87645 10.9909 3.87296 11.0089 3.87296 11.0089C3.84502 11.0276 3.67217 11.7169 3.67217 11.7169C3.64423 11.8036 3.33054 12.7473 3.33054 12.7473L3.32821 12.7456C3.32762 12.7473 3.32762 12.7497 3.32762 12.7514C2.50177 15.6373 3.59884 17.3874 3.78566 17.6563C5.24415 21.9016 9.35713 24.961 14.2028 24.961C17.9003 24.961 21.1711 23.1801 23.161 20.4508C23.2174 20.3612 23.2459 20.1807 23.2459 20.1807C23.2477 20.1207 23.2925 20.094 23.2925 20.094C23.4461 20.0113 23.4991 19.9542 23.5055 19.9461C24.5711 18.2967 25.1863 16.3452 25.1863 14.2523C25.1863 12.0452 24.5013 9.99534 23.328 8.29127" fill="#051821"/>
<path d="M9.59405 6.21677C9.62257 6.18649 9.64876 6.15913 9.67146 6.13409C9.70871 6.09625 9.72267 6.08636 9.72733 6.08926C9.72999 6.08687 9.73271 6.08455 9.73548 6.08228C9.74479 5.5327 9.86934 5.0914 9.86934 5.0914C10.8675 3.69648 12.5151 3.32621 12.5151 3.32621C12.72 3.26799 12.5879 3.35823 12.5879 3.35823C11.5501 4.52086 11.6584 5.48088 11.6584 5.48088L12.6484 9.09452C12.6484 9.09452 11.8458 8.81274 11.2277 7.5424C10.942 10.0761 13.3299 12.1295 13.3299 12.1295C13.4341 12.2191 13.2705 12.1225 13.2705 12.1225C12.6722 11.8238 11.9837 11.1939 11.7958 11.0169C11.8458 11.2125 13.0086 17.0582 13.0115 17.0745C13.0174 17.1019 13.0331 17.159 13.0453 17.1956L13.448 16.1954L13.7809 19.1471C12.2672 20.5566 10.6545 19.9983 10.5549 19.961C10.5939 20.0251 10.6242 20.0711 10.6242 20.0711C10.6242 20.0711 11.9343 22.6437 17.2677 22.3707C17.2677 22.3707 17.3952 22.3695 17.3759 22.3858C17.3777 22.3905 17.3707 22.3969 17.3468 22.4056C17.2462 22.4417 17.0896 22.4673 17.0896 22.4673C10.6504 24.1871 7.31379 18.6983 7.16945 18.4537C7.12871 18.3979 6.81618 17.9571 6.64157 17.5129C6.63634 17.5007 6.62877 17.4571 6.65904 17.4902C6.65904 17.4902 7.34289 18.2034 9.2757 18.3798C9.29025 18.3786 9.2984 18.3763 9.2984 18.3763C7.80324 16.7095 7.16829 15.5015 7.07458 15.3169C7.07458 15.3163 7.074 15.3163 7.07225 15.3163C7.07225 15.3163 6.893 15.0462 6.67999 14.2806C6.67999 14.2806 6.68581 14.2416 6.70385 14.2806C6.7766 14.432 7.27129 15.1621 7.87309 15.3257H7.87425C7.36383 14.5013 7.04665 13.196 7.00591 13.0056C7.70198 13.9808 8.93465 14.0513 8.93465 14.0513C8.9329 14.0472 8.93116 14.0448 8.92824 14.0408C8.93116 14.0454 8.93232 14.0478 8.93232 14.0478C6.90406 12.0247 7.34114 9.82108 8.16409 8.23055C8.64889 7.29148 9.26814 6.5655 9.59405 6.21677Z" fill="#FEFEFE"/>
<path d="M15.6607 19.6126L14.3303 21.0133L14.3332 21.0104L15.9756 19.7494L15.1253 16.8169L15.4966 13.29L14.8476 16.6586L15.6607 19.6126ZM15.9562 10.9827C15.8404 11.5852 15.6507 12.2023 15.3224 12.4771C15.3463 12.4649 15.376 12.4498 15.4097 12.4294C15.5087 12.3712 15.6396 12.278 15.7717 12.1412C16.0342 11.8682 16.2985 11.4216 16.2985 10.7195C16.2985 10.4063 16.2455 10.0407 16.1163 9.61742C16.1035 9.85961 16.0639 10.415 15.9562 10.9826V10.9827ZM15.9423 6.48264C16.4062 5.78169 17.168 5.72055 17.491 5.71823C17.2117 5.63613 16.9527 5.60645 16.721 5.60645C16.2316 5.60645 15.8673 5.74093 15.7171 5.80788C15.695 5.8172 15.6775 5.82593 15.6647 5.83233C15.784 5.99884 15.9016 6.35339 15.9423 6.48264H15.9423ZM15.9348 6.53678L15.9575 6.53037L15.9348 6.53678ZM14.7777 8.3344L14.7981 8.32275L14.7778 8.3344L14.7777 8.3344ZM15.3563 7.95423C15.3679 7.95539 15.3766 7.96471 15.3772 7.97635C15.3784 8.04156 15.379 8.1056 15.379 8.17197C15.3784 9.67983 14.978 11.3321 14.8255 11.9067C15.4034 10.5845 15.5588 9.35031 15.5588 8.40251C15.5588 7.84711 15.5053 7.39067 15.4517 7.07279C15.4238 6.90746 15.3958 6.78054 15.376 6.69612C15.2294 7.83139 14.7975 8.34604 14.7952 8.34895C14.7906 8.35536 14.7824 8.35827 14.7754 8.35769C14.7673 8.35652 14.7609 8.35186 14.7568 8.34488C14.0468 7.03379 12.9992 6.23387 12.5202 5.91657C12.4572 5.87441 12.3932 5.83384 12.3281 5.7949C13.6795 8.73203 14.0747 10.9985 14.1766 11.7449C14.1795 11.6593 14.1812 11.5719 14.1812 11.4834C14.1812 10.1415 13.8384 8.52361 13.6661 7.79937C13.6091 7.55776 13.5713 7.41629 13.5713 7.41629V7.4157C13.5689 7.40581 13.5724 7.39591 13.5812 7.39067C13.5887 7.38485 13.5998 7.38543 13.6085 7.39184C14.2155 7.86341 14.6421 9.20419 14.7172 9.45278C14.8307 9.31247 14.9797 8.96083 15.1002 8.63772C15.2311 8.28899 15.3312 7.97054 15.3312 7.96995C15.3347 7.95947 15.3435 7.95365 15.3534 7.95365C15.3545 7.95365 15.3557 7.95423 15.3563 7.95423H15.3563Z" fill="#C4CDD3"/>
<path d="M3.98828 14.0461C3.98886 15.4427 4.22923 16.9046 5.43048 18.7699L5.43222 18.7723C6.56711 21.1645 8.6594 22.4517 9.63483 22.9448C9.95958 23.1095 10.1592 23.1858 10.161 23.1864C11.7108 23.917 13.1687 24.186 14.4747 24.186C17.2107 24.186 19.2844 23.0071 20.1492 22.4167C20.4385 22.2205 20.5921 22.0901 20.5921 22.0901L20.6072 22.1076L20.5921 22.0896C20.6497 22.0424 20.6928 22.0046 20.7242 21.9766C20.7073 21.9859 20.6899 21.9964 20.673 22.0069C20.6107 22.0436 20.5537 22.0808 20.5537 22.0808C18.4277 23.329 16.4681 23.7104 14.8693 23.7104C12.3638 23.7104 10.7424 22.776 10.7412 22.7754C5.42931 19.9884 5.35132 15.1586 5.35132 15.1551C5.35132 15.1447 5.35831 15.1353 5.36936 15.1324C5.37984 15.1301 5.39032 15.1348 5.39556 15.1447C6.08056 16.4726 6.91166 16.9256 7.28181 17.0694C7.32426 17.086 7.36736 17.101 7.41101 17.1142C5.86639 15.1668 5.42408 13.5285 5.42408 12.2925C5.42408 10.6566 6.19872 9.73032 6.20047 9.72799C6.20687 9.71984 6.2185 9.71692 6.22782 9.72158C6.23829 9.72624 6.24295 9.7373 6.2412 9.7472C6.13062 10.3236 6.08814 10.833 6.08756 11.2737C6.08814 12.3513 6.34072 13.0226 6.46644 13.2892C6.46993 13.2974 6.47342 13.3049 6.47749 13.3119C6.43214 12.9348 6.4094 12.5553 6.4094 12.1755C6.4094 8.53334 8.54301 6.28901 8.99347 5.85645C8.65591 5.99734 8.24677 6.35945 7.91329 6.7012C7.54372 7.07903 7.26494 7.4301 7.26436 7.43068C7.25854 7.43824 7.24806 7.44116 7.23875 7.43824C7.23001 7.43533 7.22304 7.42602 7.22361 7.41612C7.22711 7.12677 7.39182 6.76291 7.48144 6.58709C7.20674 6.83685 6.97917 7.22808 6.8168 7.56982C6.63696 7.94882 6.53802 8.26553 6.53802 8.2667L6.53337 8.27485C5.68831 9.23139 5.27916 10.2531 5.12784 10.7032C5.07721 10.8539 5.05567 10.9389 5.05567 10.9389C5.03647 11.0164 5.02541 11.0548 5.01493 11.074C5.01028 11.0798 5.01028 11.0903 4.98817 11.0932C4.9707 11.0926 4.96605 11.0798 4.96372 11.0758C4.96139 11.0705 4.96081 11.0664 4.96023 11.0618C4.95906 11.0525 4.95848 11.0414 4.95848 11.0292C4.95848 10.9843 4.96372 10.9232 4.96372 10.9232C4.98001 10.2357 5.26578 9.46252 5.38101 9.17666C4.57087 10.0482 4.37241 11.2294 4.37241 12.1738C4.37241 12.6203 4.41722 13.0139 4.46145 13.2939C4.50569 13.5751 4.54933 13.7433 4.54933 13.7439L4.54992 13.7497C4.55225 14.3051 4.66166 14.991 4.76991 15.5382C4.87875 16.0855 4.98583 16.4918 4.98583 16.4913C5.02192 16.5972 5.0353 16.6461 5.03647 16.6723C5.03588 16.6776 5.03588 16.6816 5.03355 16.6886C5.03123 16.695 5.02017 16.7049 5.00912 16.7043C4.99107 16.702 4.98874 16.695 4.98293 16.6904C4.97729 16.684 4.97222 16.6772 4.96779 16.67C4.95732 16.6548 4.94567 16.6351 4.93462 16.6153C4.92064 16.5903 4.90706 16.565 4.89388 16.5396C4.32818 15.6727 4.05231 14.2428 3.98945 13.8825C3.98887 13.9372 3.98829 13.9913 3.98829 14.0461" fill="#C4CDD3"/>
<path d="M16.4474 7.22411L16.4357 7.21363L16.4415 7.19849C16.7011 6.50452 17.9216 5.88741 18.1584 5.77156C17.5904 5.45251 17.0462 5.35703 16.594 5.35703C16.2518 5.35703 15.9637 5.41234 15.7612 5.46707C15.5587 5.52237 15.4428 5.5771 15.4428 5.5771L15.4265 5.58525L15.4155 5.57069C15.2054 5.30813 14.9318 5.04673 14.7107 4.85169C14.4988 4.66481 14.3365 4.53848 14.3225 4.528C14.2916 4.50821 14.2719 4.49598 14.2695 4.46687C14.2695 4.44998 14.2818 4.43834 14.2911 4.43369C14.301 4.42845 14.3109 4.42553 14.3225 4.4232C14.3452 4.41913 14.372 4.41797 14.3958 4.41797C14.4249 4.41797 14.45 4.42029 14.4558 4.42088C19.3224 4.42146 21.9094 7.89944 21.91 7.90061C21.9438 7.93961 21.9606 7.97746 21.9606 8.01355C21.9566 8.11835 21.8378 8.16841 21.7302 8.20218C21.6213 8.23537 21.5131 8.2476 21.5131 8.2476C21.0428 8.3128 20.6069 8.34132 20.2042 8.34132C17.6742 8.34132 16.4503 7.22644 16.4474 7.22411H16.4474ZM14.7886 21.2864C14.7805 21.2835 14.7746 21.2771 14.7729 21.2684C14.7712 21.2602 14.7746 21.2515 14.7811 21.2457L16.4136 19.9317L15.5854 16.863V16.8542L15.8141 14.7968C15.8147 14.7892 15.8182 14.7828 15.824 14.7793C15.8298 14.7752 15.8368 14.7741 15.8432 14.7764C16.2151 14.8905 16.3891 15.3959 16.4787 15.8674C16.5422 16.2057 16.5602 16.5294 16.5655 16.6877C16.999 15.7487 17.1405 14.9947 17.1405 14.4102C17.1405 13.5829 16.857 13.0939 16.7168 12.9018C16.6702 12.8383 16.6399 12.808 16.6399 12.808C16.6312 12.7993 16.6312 12.7847 16.6399 12.7754C16.6487 12.7661 16.6632 12.7661 16.6725 12.7749C18.617 14.6175 19.0075 17.1971 19.0075 18.9751C19.0075 20.1762 18.8294 21.0134 18.8294 21.014L18.8288 21.0169C18.7648 21.2067 18.5687 21.2544 18.5652 21.2556C17.7737 21.4308 17.0759 21.4884 16.5026 21.4884C15.4271 21.4884 14.7904 21.287 14.7886 21.2864" fill="#007DC5"/>
<path d="M19.3616 21.0631C19.3313 21.0393 19.3121 20.9985 19.3127 20.9415C19.3127 20.9158 19.3162 20.8856 19.3243 20.8512C19.3243 20.8506 19.3878 20.6073 19.4512 20.1875C19.5135 19.7672 19.5769 19.1734 19.5769 18.4747C19.5769 16.6222 19.1328 14.0379 17.0697 12.0282C17.0615 12.0235 17.0324 12.0031 17.0138 11.9822C17.0068 11.974 16.9992 11.9665 16.9981 11.9496C16.9975 11.9385 17.0062 11.9251 17.0155 11.9216C17.0248 11.917 17.033 11.9164 17.0429 11.9164C17.0633 11.9164 17.0912 11.9211 17.136 11.9321C17.1378 11.9333 17.686 12.0998 18.0713 12.5324C18.0678 12.5056 18.0631 12.4718 18.0579 12.4316C18.0404 12.321 18.0113 12.1667 17.9595 11.9868C17.8571 11.6265 17.6656 11.1654 17.3164 10.7631C17.3158 10.7625 17.2675 10.7119 17.2414 10.6769C17.2332 10.663 17.2256 10.6583 17.2233 10.6385C17.2233 10.6344 17.2245 10.6257 17.2309 10.6193C17.2373 10.6135 17.2454 10.6123 17.2495 10.6123C17.2664 10.6135 17.2734 10.6193 17.2902 10.6292C17.306 10.6391 17.3269 10.6536 17.3554 10.6746C17.4788 10.7346 22.6615 13.2426 22.8431 18.3082C22.8431 18.3094 22.8454 18.3379 22.8454 18.3833C22.8448 18.5068 22.8256 18.7542 22.6621 18.8945C22.612 18.9574 21.384 20.4856 19.5769 21.0725C19.5757 21.0725 19.5222 21.0934 19.4623 21.0934C19.4285 21.0934 19.3912 21.087 19.3616 21.0631Z" fill="#007DC5"/>
<path d="M23.2592 17.4977C23.2452 17.4616 23.2377 17.411 23.2359 17.3429C23.1178 12.4688 17.7762 9.40124 16.4405 8.71135C16.2502 8.61296 16.1425 8.56289 16.1425 8.56289L16.0488 8.51981L16.1518 8.51865H16.1646C16.8648 8.51923 17.2937 8.94248 17.4212 9.08861V9.08802C17.4212 8.95995 17.3956 8.82546 17.3705 8.72299C17.3444 8.61995 17.3187 8.55067 17.3187 8.55067L17.3019 8.50293L17.349 8.52039C17.9083 8.73347 18.6288 8.80392 19.3354 8.80392C20.0181 8.80392 20.6885 8.73813 21.1873 8.67235C21.6866 8.60598 22.0137 8.54019 22.0143 8.54019L22.0155 8.5396H22.0166C22.0428 8.53727 22.0679 8.53611 22.0911 8.53611C22.3751 8.53553 22.4659 8.69621 22.4782 8.72357C23.1457 9.46878 23.9727 11.1955 24.1112 13.2687C24.1281 13.5295 24.1363 13.7816 24.1363 14.0255C24.1345 15.8449 23.6998 17.1711 23.4437 17.4855C23.4064 17.5309 23.3727 17.5583 23.3325 17.5594C23.2982 17.5594 23.2726 17.5332 23.2592 17.4977Z" fill="#007DC5"/>
<path d="M11.8893 3.83605C11.8922 3.83198 11.8968 3.8279 11.8986 3.82324L11.8968 3.82382C11.8375 3.84071 10.7736 4.1545 10.4581 5.77822C10.4581 5.77822 10.4558 5.80792 10.4733 5.78055C10.5687 5.62278 10.901 5.11919 11.2072 5.26823C11.2072 5.26823 11.2089 5.25543 11.2112 5.23505C11.2281 5.09765 11.3276 4.53351 11.8893 3.83605V3.83605ZM11.0731 18.5101C10.8432 18.0478 9.36608 14.8196 9.36608 14.8196C8.9063 14.9663 8.33594 14.592 8.33594 14.592V14.5937C9.06343 16.5242 10.7739 18.2126 11.0469 18.5194C11.0492 18.5217 11.0498 18.5217 11.051 18.5235C11.0975 18.5741 11.0975 18.5561 11.0975 18.5561C11.0905 18.5462 11.0841 18.5299 11.0731 18.5101ZM9.60871 7.99776C8.27477 11.0467 11.2761 12.3036 11.3157 12.3193L11.3169 12.3199L11.158 11.6178L11.0672 11.2155C10.991 11.191 10.9223 11.1637 10.8536 11.1328C10.8303 11.1229 10.8082 11.1119 10.7855 11.1014C10.7576 11.0886 10.7296 11.0746 10.7035 11.0612C9.39221 10.3638 9.51908 8.69347 9.59998 8.15145C9.59998 8.14679 9.59998 8.14388 9.60056 8.13981C9.60406 8.12409 9.60639 8.10895 9.60871 8.0944C9.61686 8.04375 9.62326 8.00882 9.62734 7.99077C9.62908 7.98262 9.63025 7.9768 9.63025 7.9768V7.97505C9.63374 7.93488 9.61453 7.98029 9.60871 7.99776Z" fill="#051821"/>
<path d="M11.583 16.5806L11.3671 12.7492L12.6551 17.0213C12.6551 17.0213 12.2325 16.0118 11.583 16.5806ZM11.6609 5.56508L11.9461 7.85598C11.9461 7.85598 12.0858 8.48184 11.2279 7.54335C11.846 8.81309 12.6486 9.09546 12.6486 9.09546L11.6661 5.50977C11.6644 5.51559 11.6574 5.52199 11.6609 5.56507V5.56508ZM10.2923 9.74384C10.212 9.55521 10.18 9.38289 10.18 9.22861C10.18 8.67204 10.5897 8.35882 10.5914 8.35707L10.6037 8.34776C10.6037 8.353 10.5827 7.99437 10.6165 7.42033C10.287 7.90529 9.58923 9.05395 10.4244 9.95226C10.411 9.93421 10.3994 9.91734 10.3877 9.90103C10.3447 9.83874 10.315 9.78809 10.2923 9.74384Z" fill="#C4CDD3"/>
<path d="M11.165 10.2095C11.023 9.96089 10.661 9.16737 10.6045 8.36395C10.604 8.35872 10.6034 8.35231 10.6034 8.34766L10.5912 8.35639C10.5894 8.35813 10.1797 8.67077 10.1797 9.22791C10.1797 9.38219 10.2123 9.55511 10.292 9.74315C10.3147 9.7874 10.345 9.83805 10.3875 9.90034C10.3991 9.91664 10.4113 9.93353 10.4247 9.95274C10.4398 9.97254 10.4579 9.99058 10.4777 10.0115C10.6179 10.1652 10.8554 10.3236 11.2453 10.3405C11.2453 10.3405 11.2133 10.2939 11.165 10.2095Z" fill="#051821"/>
<path d="M12.3296 17.486C12.4628 17.4877 12.5641 17.6088 12.6473 17.7783C12.7305 17.9483 12.7975 18.1736 12.8493 18.3977C12.9139 18.676 12.9552 18.9554 12.9773 19.1254C12.9767 19.2023 12.9762 19.2588 12.9744 19.2919V19.2949C13.0023 19.1097 13.2736 17.3189 12.3639 17.0668C12.3639 17.0668 11.7307 16.905 11.7714 18.2248C11.7755 18.1939 11.779 18.1677 11.7813 18.1433C11.9891 17.6764 12.1631 17.4895 12.3296 17.486Z" fill="#C4CDD3"/>
<path d="M12.9742 19.2947V19.2952V19.2947ZM12.9777 19.1258C12.9742 19.0699 12.9136 18.6763 12.849 18.3975C12.7972 18.1733 12.7309 17.9486 12.6471 17.7786C12.5644 17.6092 12.4626 17.4881 12.3299 17.4863C12.1629 17.4892 11.9894 17.6767 11.7817 18.1436C11.7689 18.1774 11.7718 18.182 11.7718 18.2245L12.0849 18.915C12.0849 18.915 12.2653 17.066 12.973 19.2888C12.9736 19.2934 12.9736 19.2969 12.9742 19.2981V19.294V19.2952V19.2917C12.9765 19.2591 12.9841 19.2183 12.9777 19.1258" fill="#051821"/>
</g>
<defs>
<clipPath id="clip0_679_4048">
<rect width="28" height="28" fill="white"/>
</clipPath>
</defs>
</svg>
