<svg width="29" height="28" viewBox="0 0 29 28" fill="none" xmlns="http://www.w3.org/2000/svg">
<path d="M4.44237 4.35547H18.4307V23.6444H16.3774V14.8088H16.3572C16.1303 12.3669 14.0139 10.4532 11.4365 10.4532C8.8592 10.4532 6.74278 12.3669 6.51585 14.8088H6.4957V23.6444H4.44237V4.35547Z" fill="#855DCD"/>
<path d="M0.720703 7.09325L1.55487 9.83102H2.2607V20.9066C1.90632 20.9066 1.61904 21.1852 1.61904 21.5288V22.2755H1.4907C1.13632 22.2755 0.849036 22.554 0.849036 22.8977V23.6444H8.0357V22.8977C8.0357 22.554 7.74842 22.2755 7.39404 22.2755H7.2657V21.5288C7.2657 21.1852 6.97842 20.9066 6.62404 20.9066H5.85404V7.09325H0.720703Z" fill="#855DCD"/>
<path d="M16.5057 20.9066C16.1513 20.9066 15.864 21.1852 15.864 21.5288V22.2755H15.7357C15.3813 22.2755 15.094 22.554 15.094 22.8977V23.6444H22.2807V22.8977C22.2807 22.554 21.9934 22.2755 21.639 22.2755H21.5107V21.5288C21.5107 21.1852 21.2234 20.9066 20.869 20.9066V9.83102H21.5749L22.409 7.09325H17.2757V20.9066H16.5057Z" fill="#855DCD"/>
</svg>
