<?xml version="1.0" standalone="no"?>
<!DOCTYPE svg PUBLIC "-//W3C//DTD SVG 20010904//EN"
 "http://www.w3.org/TR/2001/REC-SVG-20010904/DTD/svg10.dtd">
<svg version="1.0" xmlns="http://www.w3.org/2000/svg"
 width="600.000000pt" height="600.000000pt" viewBox="0 0 600.000000 600.000000"
 preserveAspectRatio="xMidYMid meet">
<metadata>
Created by potrace 1.14, written by Peter Selinger 2001-2017
</metadata>
<g transform="translate(0.000000,600.000000) scale(0.100000,-0.100000)"
fill="#000000" stroke="none">
<path d="M2798 5995 c-2 -1 -37 -6 -78 -10 -41 -3 -84 -8 -95 -10 -11 -1 -35
-3 -53 -4 -18 0 -31 -5 -28 -10 4 -5 -2 -7 -11 -5 -15 4 -190 -26 -243 -41 -8
-3 -42 -11 -74 -19 -106 -27 -305 -99 -299 -109 3 -6 1 -7 -5 -3 -16 10 -318
-122 -333 -145 -3 -6 -10 -11 -15 -11 -16 -1 -74 -31 -74 -39 0 -4 -10 -9 -22
-13 -13 -3 -32 -12 -43 -20 -11 -9 -58 -41 -104 -71 -71 -48 -150 -107 -234
-174 -70 -56 -309 -292 -369 -364 -53 -64 -93 -114 -111 -138 -77 -107 -108
-153 -143 -209 -21 -36 -45 -71 -52 -78 -7 -8 -10 -18 -7 -23 4 -5 2 -9 -2 -9
-5 0 -31 -44 -58 -97 -27 -54 -54 -101 -60 -105 -5 -4 -7 -8 -3 -8 4 0 -9 -33
-28 -72 -19 -40 -33 -81 -30 -90 2 -10 -1 -16 -7 -15 -6 1 -12 -2 -12 -8 -2
-10 -9 -31 -26 -73 -5 -13 -7 -27 -4 -32 3 -5 1 -10 -4 -12 -17 -6 -95 -288
-121 -433 -21 -120 -25 -152 -37 -273 -10 -96 -10 -442 0 -542 8 -88 16 -155
23 -190 2 -14 7 -43 10 -65 3 -22 8 -47 11 -55 3 -8 7 -24 9 -35 10 -70 25
-128 81 -305 25 -80 49 -149 54 -155 5 -5 9 -15 9 -22 0 -43 208 -449 277
-539 12 -17 23 -36 23 -42 0 -7 3 -12 8 -12 4 0 18 -18 32 -40 14 -22 28 -40
32 -40 5 0 8 -6 8 -13 0 -6 18 -32 40 -56 22 -24 40 -47 40 -52 0 -5 5 -9 10
-9 6 0 10 -4 10 -9 0 -27 292 -321 410 -411 25 -19 47 -37 50 -40 15 -16 97
-75 185 -134 55 -36 105 -69 111 -74 51 -36 304 -161 427 -211 153 -62 354
-126 462 -147 11 -2 43 -8 70 -14 28 -5 60 -11 72 -14 11 -2 43 -7 70 -11 26
-4 59 -9 73 -11 87 -13 190 -18 370 -19 181 0 373 10 389 20 3 1 35 6 71 10
36 4 68 9 71 11 4 2 22 6 40 9 110 15 414 101 514 144 11 5 36 16 57 25 20 9
39 16 42 16 10 0 240 111 246 119 3 3 28 17 55 31 28 14 79 44 114 67 35 24
67 43 70 43 4 0 16 8 27 18 11 9 45 34 76 55 31 21 68 49 82 62 14 13 32 28
40 32 70 41 389 361 455 457 8 12 21 25 28 29 7 4 13 15 13 22 0 8 3 15 8 15
4 0 18 17 32 38 13 20 37 53 52 72 16 19 28 40 28 47 0 7 4 13 8 13 5 0 16 15
25 33 10 17 31 55 49 82 45 73 158 295 158 311 0 8 5 14 12 14 6 0 9 3 6 6 -4
3 5 31 19 62 13 31 38 97 55 147 16 49 32 97 35 105 3 8 7 20 8 25 2 6 14 53
28 105 41 151 65 291 84 480 15 147 7 568 -12 654 -3 11 -7 39 -9 61 -8 65
-23 144 -46 240 -25 107 -109 376 -121 390 -5 5 -9 15 -9 22 0 26 -123 283
-193 403 -88 150 -213 330 -274 395 -7 8 -13 15 -13 18 0 2 -20 26 -45 53 -25
27 -45 52 -45 56 0 5 -7 8 -17 8 -9 0 -14 3 -10 6 8 8 -263 274 -279 274 -4 0
-18 12 -72 58 -15 12 -45 35 -67 50 -22 15 -43 31 -46 36 -4 5 -12 5 -19 1 -9
-5 -11 -4 -6 4 4 6 0 14 -11 18 -10 4 -20 9 -23 12 -12 14 -87 61 -97 61 -6 0
-13 4 -15 8 -5 12 -153 94 -263 146 -55 26 -113 54 -130 63 -16 10 -30 16 -30
14 0 -1 -11 2 -25 7 -126 47 -319 108 -400 126 -105 24 -275 55 -325 60 -33 3
-71 8 -85 12 -25 6 -496 15 -502 9z"/>
</g>
</svg>
